<svg width="158" height="33" viewBox="0 0 158 33" fill="none" xmlns="http://www.w3.org/2000/svg">
<path d="M35.28 24.088V20.26H37.92C38.6093 20.26 39.2253 20.1647 39.768 19.974C40.3253 19.7687 40.7947 19.4827 41.176 19.116C41.5573 18.7347 41.8507 18.28 42.056 17.752C42.2613 17.2093 42.364 16.6007 42.364 15.926C42.364 15.222 42.2613 14.606 42.056 14.078C41.8507 13.5353 41.5573 13.088 41.176 12.736C40.7947 12.3693 40.3253 12.098 39.768 11.922C39.2253 11.7313 38.6093 11.636 37.92 11.636H35.28V7.808H37.744C39.196 7.808 40.4647 8.01333 41.55 8.424C42.65 8.83467 43.5667 9.40667 44.3 10.14C45.0333 10.8587 45.5833 11.6947 45.95 12.648C46.3167 13.6013 46.5 14.6133 46.5 15.684V16.168C46.5 17.1507 46.3167 18.1187 45.95 19.072C45.5833 20.0107 45.0333 20.8613 44.3 21.624C43.5667 22.372 42.65 22.9733 41.55 23.428C40.4647 23.868 39.196 24.088 37.744 24.088H35.28ZM31.628 24.088V7.808H35.72V24.088H31.628ZM48.751 24V7.94H52.711V24H48.751ZM52.271 24V20.656H59.047V24H52.271ZM52.271 17.51V14.166H58.585V17.51H52.271ZM52.271 11.284V7.94H58.915V11.284H52.271ZM60.2746 24L65.5986 15.464L65.6426 15.816L60.7146 7.94H65.2026L67.9526 12.582H68.5246L71.1866 7.94H75.5426L70.6366 15.86L70.5706 15.508L76.0706 24H71.5826L68.3046 18.698H67.7326L64.6306 24H60.2746ZM89.8331 24.44C88.3811 24.44 87.1345 24.1907 86.0931 23.692C85.0518 23.1787 84.1938 22.5113 83.5191 21.69C82.8445 20.854 82.3458 19.952 82.0231 18.984C81.7005 18.016 81.5391 17.0773 81.5391 16.168V15.684C81.5391 14.672 81.7005 13.682 82.0231 12.714C82.3605 11.7313 82.8665 10.844 83.5411 10.052C84.2305 9.26 85.0885 8.62933 86.1151 8.16C87.1418 7.69067 88.3445 7.456 89.7231 7.456C91.1898 7.456 92.4878 7.73467 93.6171 8.292C94.7611 8.83467 95.6778 9.60467 96.3671 10.602C97.0565 11.5847 97.4598 12.7287 97.5771 14.034H93.4851C93.3825 13.4767 93.1625 12.9927 92.8251 12.582C92.4878 12.1713 92.0551 11.856 91.5271 11.636C90.9991 11.4013 90.3978 11.284 89.7231 11.284C89.0925 11.284 88.5205 11.394 88.0071 11.614C87.5085 11.834 87.0831 12.1493 86.7311 12.56C86.3938 12.956 86.1298 13.44 85.9391 14.012C85.7631 14.584 85.6751 15.2293 85.6751 15.948C85.6751 16.6667 85.7631 17.312 85.9391 17.884C86.1298 18.456 86.4011 18.9473 86.7531 19.358C87.1198 19.7687 87.5598 20.084 88.0731 20.304C88.5865 20.5093 89.1731 20.612 89.8331 20.612C90.8598 20.612 91.7251 20.3627 92.4291 19.864C93.1478 19.3653 93.5805 18.698 93.7271 17.862H97.8191C97.6871 19.0647 97.2838 20.1647 96.6091 21.162C95.9345 22.1593 95.0251 22.9587 93.8811 23.56C92.7371 24.1467 91.3878 24.44 89.8331 24.44ZM99.7938 24V7.94H103.798V17.092H103.27C103.27 15.86 103.424 14.826 103.732 13.99C104.04 13.154 104.487 12.5233 105.074 12.098C105.675 11.6727 106.416 11.46 107.296 11.46H107.472C108.792 11.46 109.796 11.9367 110.486 12.89C111.19 13.8433 111.542 15.244 111.542 17.092V24H107.538V16.938C107.538 16.3807 107.369 15.926 107.032 15.574C106.694 15.2073 106.247 15.024 105.69 15.024C105.132 15.024 104.678 15.2073 104.326 15.574C103.974 15.926 103.798 16.3953 103.798 16.982V24H99.7938ZM121.579 24V20.436H120.919V16.63C120.919 16.0727 120.787 15.662 120.523 15.398C120.274 15.1193 119.856 14.98 119.269 14.98C118.991 14.98 118.58 14.9873 118.037 15.002C117.495 15.0167 116.923 15.0387 116.321 15.068C115.72 15.0973 115.17 15.1267 114.671 15.156V11.812C115.023 11.7827 115.441 11.7533 115.925 11.724C116.409 11.6947 116.908 11.6727 117.421 11.658C117.949 11.6433 118.433 11.636 118.873 11.636C120.12 11.636 121.176 11.8193 122.041 12.186C122.921 12.5527 123.589 13.1027 124.043 13.836C124.513 14.5693 124.747 15.5007 124.747 16.63V24H121.579ZM117.729 24.308C116.879 24.308 116.123 24.154 115.463 23.846C114.803 23.538 114.283 23.098 113.901 22.526C113.535 21.9393 113.351 21.2427 113.351 20.436C113.351 19.5267 113.593 18.7933 114.077 18.236C114.561 17.664 115.229 17.246 116.079 16.982C116.93 16.718 117.905 16.586 119.005 16.586H121.359V18.654H119.005C118.463 18.654 118.045 18.7933 117.751 19.072C117.458 19.336 117.311 19.6953 117.311 20.15C117.311 20.59 117.458 20.9493 117.751 21.228C118.045 21.492 118.463 21.624 119.005 21.624C119.357 21.624 119.665 21.5653 119.929 21.448C120.208 21.316 120.435 21.096 120.611 20.788C120.787 20.48 120.89 20.0547 120.919 19.512L121.843 20.392C121.77 21.228 121.565 21.9393 121.227 22.526C120.905 23.098 120.45 23.538 119.863 23.846C119.291 24.154 118.58 24.308 117.729 24.308ZM127.423 24V11.856H130.591V17.136H130.547C130.547 15.4347 130.899 14.1 131.603 13.132C132.321 12.164 133.348 11.68 134.683 11.68H135.167V15.112H134.243C133.348 15.112 132.651 15.354 132.153 15.838C131.669 16.322 131.427 17.0187 131.427 17.928V24H127.423ZM142.834 24.176C141.514 24.176 140.458 24.0147 139.666 23.692C138.888 23.3693 138.324 22.834 137.972 22.086C137.62 21.338 137.444 20.326 137.444 19.05L137.466 8.688H141.162L141.14 19.16C141.14 19.7027 141.279 20.1207 141.558 20.414C141.851 20.6927 142.269 20.832 142.812 20.832H144.484V24.176H142.834ZM135.684 14.76V11.856H144.484V14.76H135.684ZM151.362 24.396C149.602 24.396 148.216 24.0367 147.204 23.318C146.192 22.5847 145.649 21.558 145.576 20.238H149.096C149.154 20.6047 149.382 20.92 149.778 21.184C150.174 21.448 150.731 21.58 151.45 21.58C151.963 21.58 152.403 21.5067 152.77 21.36C153.151 21.1987 153.342 20.942 153.342 20.59C153.342 20.282 153.195 20.0327 152.902 19.842C152.608 19.6367 152.073 19.4973 151.296 19.424L150.46 19.336C148.905 19.1747 147.761 18.7493 147.028 18.06C146.294 17.3707 145.928 16.5053 145.928 15.464C145.928 14.5693 146.148 13.836 146.588 13.264C147.028 12.6773 147.636 12.2373 148.414 11.944C149.191 11.6507 150.078 11.504 151.076 11.504C152.704 11.504 154.016 11.8633 155.014 12.582C156.011 13.286 156.539 14.3053 156.598 15.64H153.078C153.019 15.2733 152.821 14.9653 152.484 14.716C152.146 14.452 151.662 14.32 151.032 14.32C150.577 14.32 150.203 14.4007 149.91 14.562C149.631 14.7233 149.492 14.9507 149.492 15.244C149.492 15.552 149.624 15.7793 149.888 15.926C150.166 16.0727 150.606 16.1827 151.208 16.256L152.044 16.344C153.598 16.5053 154.794 16.938 155.63 17.642C156.48 18.3313 156.906 19.2407 156.906 20.37C156.906 21.206 156.678 21.9247 156.224 22.526C155.784 23.1273 155.146 23.5893 154.31 23.912C153.488 24.2347 152.506 24.396 151.362 24.396Z" fill="#313131"/>
<circle cx="12" cy="16" r="12" fill="#313131"/>
</svg>
