<svg width="14" height="14" viewBox="0 0 14 14" fill="none" xmlns="http://www.w3.org/2000/svg">
<path fill-rule="evenodd" clip-rule="evenodd" d="M2.55477 1.81205C3.79501 0.818141 5.32086 0.275024 6.89601 0.275024C8.47116 0.275025 9.99701 0.818143 11.2372 1.81205C11.518 2.03706 11.7715 2.25724 12 2.46826V2.00003C12 1.44775 12.4477 1.00003 13 1.00003C13.5523 1.00003 14 1.44775 14 2.00003V5.00003C14 5.55231 13.5523 6.00003 13 6.00003H10C9.44772 6.00003 9 5.55231 9 5.00003C9 4.44775 9.44772 4.00003 10 4.00003H10.7169C10.5124 3.81 10.2736 3.60282 9.98653 3.37273C9.0947 2.65803 8.00826 2.27502 6.89601 2.27502C5.78376 2.27502 4.69731 2.65803 3.80549 3.37273C3.16584 3.88533 2.65139 4.54881 2.30247 5.30732C2.07167 5.80906 1.53496 6.13728 1 6.00003C0.465042 5.86278 0.136444 5.31425 0.342969 4.80203C0.814889 3.6316 1.57335 2.59855 2.55477 1.81205Z" fill="white"/>
<path fill-rule="evenodd" clip-rule="evenodd" d="M11.4452 12.188C10.205 13.1819 8.67914 13.725 7.10399 13.725C5.52885 13.725 4.00299 13.1819 2.76276 12.188C2.57666 12.0389 2.29769 11.7716 2 11.474L2 12C2 12.5523 1.55229 13 1 13C0.447717 13 2.34318e-06 12.5523 1.97888e-06 12L0 9.00003C-3.64302e-07 8.44775 0.447715 8.00003 1 8.00003H4C4.55229 8.00003 5 8.44775 5 9.00003C5 9.55231 4.55229 10 4 10H3.35477C3.65827 10.3049 3.89622 10.5334 4.01347 10.6273C4.9053 11.342 5.99175 11.725 7.10399 11.725C8.21624 11.725 9.30269 11.342 10.1945 10.6273C10.8342 10.1147 11.3486 9.45125 11.6975 8.69274C11.9283 8.191 12.465 7.86278 13 8.00003C13.535 8.13728 13.8636 8.68581 13.657 9.19803C13.1851 10.3685 12.4267 11.4015 11.4452 12.188Z" fill="white"/>
</svg>
