<svg width="12" height="12" viewBox="0 0 12 12" fill="none" xmlns="http://www.w3.org/2000/svg">
<path fill-rule="evenodd" clip-rule="evenodd" d="M10.9585 4.99933C11.5119 4.99933 11.9604 5.44792 11.9604 6.00128C11.9604 6.55464 11.5119 7.00323 10.9585 7.00323L3.42139 7.00323L6.31495 9.8968C6.70624 10.2881 6.70624 10.9225 6.31495 11.3138C5.92366 11.7051 5.28926 11.7051 4.89797 11.3138L0.294197 6.70999C0.0947053 6.5105 -0.00307872 6.24782 0.000844711 5.98638C0.00456501 5.73495 0.10235 5.48466 0.2942 5.29281L4.89163 0.695381C5.28291 0.304094 5.91732 0.304094 6.3086 0.695382C6.69989 1.08667 6.69989 1.72107 6.3086 2.11236L3.42163 4.99933L10.9585 4.99933Z" fill="#313131"/>
</svg>
